# xmcd
#
# Track frame offsets: 
#        150
#        2215
#        15685
#        38621
#        48940
#        65713
#        84194
#        102660
#        124925
#        140660
#        149156
#        168867
#        180605
#        196462
#        206883
#        219279
#
# Disc length: 3122 seconds
#
# Revision: 0
# Processed by: cddbd v1.5.2PL0 Copyright (c) Steve Scherf et al.
# Submitted via: ExactAudioCopy v1.0b4
#
DISCID=ed0c3010
DTITLE=Artur Vanyan - Barwy duszy
DYEAR=1900
DGENRE=Ballad
TTITLE0=Wstęp
TTITLE1=Dwie Gitary
TTITLE2=Badriaga
TTITLE3=Kalitka
TTITLE4=Korobiejniki
TTITLE5=Trojka pocztowaja
TTITLE6=Kalinka
TTITLE7=Nocieńka
TTITLE8=Dorogoj dlinnoju
TTITLE9=Eh zagulał
TTITLE10=Tylko raz
TTITLE11=Nane-coha
TTITLE12=Tumenman
TTITLE13=Eh Toska
TTITLE14=Parameła
TTITLE15=Oczi czornyje
EXTD=
EXTT0=
EXTT1=
EXTT2=
EXTT3=
EXTT4=
EXTT5=
EXTT6=
EXTT7=
EXTT8=
EXTT9=
EXTT10=
EXTT11=
EXTT12=
EXTT13=
EXTT14=
EXTT15=
PLAYORDER=
